<svg xmlns="http://www.w3.org/2000/svg"  viewBox="0 0 64 64" width="64px" height="64px" baseProfile="basic"><ellipse cx="32" cy="61" opacity=".3" rx="18" ry="3"/><polygon fill="#ffce29" points="20.32,23.333 13.32,35 20.32,37.333 24.987,26.833"/><circle cx="15.493" cy="39.507" r="3.493" fill="#98c900"/><polygon fill="#ffce29" points="43.653,23.333 50.653,35 43.653,37.333 38.987,26.833"/><circle cx="48.32" cy="39.667" r="3.5" fill="#98c900"/><path fill="orange" d="M51.785,38.528l-6.883,2.896l-2.298-5.362l6.883-2.896c1.015-0.435,2.191,0.035,2.626,1.05	l0.722,1.685C53.27,36.917,52.8,38.093,51.785,38.528z"/><path fill="orange" d="M11.184,35.894l0.722-1.685c0.435-1.015,1.611-1.486,2.626-1.05l6.883,2.896l-2.298,5.362	l-6.883-2.896C11.219,38.085,10.749,36.909,11.184,35.894z"/><path fill="#ffce29" d="M46.783,47.753c0.799,3.06-1.018,6.181-4.07,7.008C40.219,55.436,36.76,56,32.157,56	c-4.782,0-8.345-0.584-10.892-1.279c-3.053-0.834-4.874-3.95-4.073-7.011l5.462-20.876H41.32L46.783,47.753z"/><path d="M46.783,47.753c0,0-3.16-12.118-3.16-12.118c-2.672,0.698-4.271,3.43-3.574,6.102l1.896,7.279	c0.105,0.405-0.132,0.809-0.539,0.919c-0.954,0.259-1.997,0.474-3.1,0.64c-2.628,0.397-4.446,2.775-4.213,5.388	c3.649-0.132,6.49-0.625,8.62-1.202C45.765,53.933,47.582,50.812,46.783,47.753z" opacity=".15"/><path fill="orange" d="M30,55.907C30.669,55.961,31.365,56,32.117,56c0.665,0,1.284-0.033,1.883-0.078V26.833h-4V55.907z"/><ellipse cx="32" cy="23.167" fill="orange" rx="13" ry="6.833"/><ellipse cx="31.987" cy="15.167" fill="#98c900" rx="11.667" ry="8.167"/><path fill="none" stroke="#fff" stroke-linecap="round" stroke-linejoin="round" stroke-miterlimit="10" stroke-width="3" d="M27.04,10.523c1.352-0.628,3.052-1.033,4.947-1.033"/><path fill="#98c900" d="M52.161,7.032L39.36,9.03l3.094,9.333c5.207,0,10.457-3.719,11.524-9.496	C54.176,7.796,53.236,6.853,52.161,7.032z"/><path fill="#98c900" d="M21.546,18.363l2.83-9.333L11.839,7.032c-1.074-0.179-2.015,0.764-1.817,1.835	C11.089,14.645,16.339,18.363,21.546,18.363z"/><path fill="#fff" d="M36.909,7.77C35.411,7.281,33.748,7,31.987,7c-2.938,0-5.615,0.766-7.667,2.021	L11.839,7.032c-1.074-0.179-2.015,0.764-1.817,1.835c0.207,1.119,0.575,2.156,1.065,3.108l12.447,1.984	c0.262,0.042,0.525,0.062,0.787,0.062c0.916,0,1.821-0.252,2.611-0.736C28.285,12.456,30.08,12,31.986,12	C34.484,12,36.536,10.163,36.909,7.77z" opacity=".3"/><circle cx="37" cy="15" r="2" fill="#9c34c2"/><circle cx="27" cy="15" r="2" fill="#9c34c2"/></svg>